<svg width="280" height="88" viewBox="0 0 280 88" fill="none" xmlns="http://www.w3.org/2000/svg">
<path d="M59.6872 73.811V68.9998H57.3414L57.3121 69.9892C57.2925 70.4095 57.2632 70.8072 57.2241 71.1823C57.1915 71.5574 57.1394 71.9001 57.0677 72.2105C56.9961 72.5144 56.9016 72.7731 56.7843 72.9865C56.6735 73.1999 56.5334 73.3518 56.364 73.4424L54.673 73.229C54.9076 73.2354 55.0999 73.1546 55.2497 72.9865C55.4061 72.8183 55.5299 72.5823 55.6212 72.2784C55.7124 71.968 55.7775 71.6059 55.8166 71.192C55.8622 70.7781 55.8948 70.3287 55.9144 69.8437L55.9926 67.7194H61.2511V73.811H59.6872ZM54.4482 75.9159L54.458 73.229H62.209V75.9159H60.7429V74.5094H55.9144V75.9159H54.4482Z" fill="#424247"/>
<path d="M63.2749 74.5094V67.7194H64.8486V72.1426L68.1132 67.7194H69.5989V74.5094H68.035V70.0959L64.7704 74.5094H63.2749Z" fill="#424247"/>
<path d="M70.6866 73.908L71.1753 72.7828C71.4686 72.9574 71.7813 73.0932 72.1137 73.1902C72.4525 73.2807 72.7816 73.3324 73.1009 73.3454C73.4267 73.3518 73.7199 73.3195 73.9805 73.2484C74.2477 73.1772 74.4595 73.0705 74.6159 72.9283C74.7788 72.786 74.8602 72.6049 74.8602 72.3851C74.8602 72.1264 74.7527 71.9357 74.5377 71.8128C74.3226 71.6835 74.0359 71.6188 73.6775 71.6188H72.0061V70.4354H73.5602C73.8795 70.4354 74.1271 70.3707 74.3031 70.2414C74.4855 70.1121 74.5768 69.9342 74.5768 69.7079C74.5768 69.5139 74.5116 69.3587 74.3813 69.2423C74.251 69.1194 74.0718 69.0289 73.8437 68.9707C73.6221 68.9125 73.3713 68.8866 73.0911 68.8931C72.8109 68.8996 72.5209 68.9448 72.2212 69.0289C71.9214 69.113 71.6347 69.2294 71.361 69.3781L70.8821 68.1656C71.3252 67.9393 71.7911 67.7841 72.2798 67.7C72.775 67.6095 73.2507 67.5868 73.7069 67.6321C74.1695 67.6709 74.5865 67.7744 74.958 67.9425C75.3294 68.1042 75.6259 68.3176 75.8474 68.5827C76.069 68.8478 76.1797 69.1615 76.1797 69.5236C76.1797 69.8469 76.095 70.1347 75.9256 70.3869C75.7562 70.6391 75.5183 70.8331 75.2121 70.9689C74.9123 71.1047 74.567 71.1726 74.176 71.1726L74.2151 70.8234C74.6712 70.8234 75.0655 70.901 75.3978 71.0562C75.7366 71.2049 75.9973 71.4151 76.1797 71.6867C76.3687 71.9518 76.4632 72.259 76.4632 72.6082C76.4632 72.9315 76.3752 73.2225 76.1993 73.4812C76.0299 73.7334 75.7953 73.9468 75.4955 74.1214C75.1958 74.296 74.8537 74.4253 74.4692 74.5094C74.0848 74.5934 73.6743 74.629 73.2377 74.6161C72.8076 74.6031 72.3743 74.5417 71.9377 74.4318C71.5011 74.3154 71.0841 74.1408 70.6866 73.908Z" fill="#424247"/>
<path d="M76.9446 74.5094L79.9941 67.7194H81.558L84.6174 74.5094H82.9557L80.4535 68.5148H81.0791L78.5671 74.5094H76.9446ZM78.4694 73.0544L78.8896 71.8613H82.4084L82.8384 73.0544H78.4694Z" fill="#424247"/>
<path d="M85.5247 74.5094V67.7194H87.0983V72.1426L90.3629 67.7194H91.8486V74.5094H90.2847V70.0959L87.0201 74.5094H85.5247ZM88.6818 67.2829C88.0301 67.2829 87.5512 67.1536 87.2449 66.8949C86.9452 66.6363 86.7921 66.2709 86.7856 65.7988H87.8705C87.877 66.0316 87.9454 66.2095 88.0758 66.3323C88.2126 66.4487 88.4146 66.5069 88.6818 66.5069C88.9424 66.5069 89.1411 66.4487 89.278 66.3323C89.4148 66.2095 89.4865 66.0316 89.493 65.7988H90.578C90.5714 66.2709 90.4151 66.6363 90.1088 66.8949C89.8025 67.1536 89.3269 67.2829 88.6818 67.2829Z" fill="#424247"/>
<path d="M98.2438 67.7194H99.8272V74.5094H98.2438V67.7194ZM95.1356 74.5094H93.5522V67.7194H95.1356V74.5094ZM98.3611 71.7255H95.0183V70.3966H98.3611V71.7255Z" fill="#424247"/>
<path d="M101.972 74.587C101.711 74.587 101.486 74.4997 101.297 74.3251C101.115 74.144 101.023 73.9144 101.023 73.6364C101.023 73.3583 101.115 73.1352 101.297 72.9671C101.486 72.7925 101.711 72.7052 101.972 72.7052C102.239 72.7052 102.463 72.7925 102.646 72.9671C102.828 73.1352 102.92 73.3583 102.92 73.6364C102.92 73.9144 102.828 74.144 102.646 74.3251C102.463 74.4997 102.239 74.587 101.972 74.587Z" fill="#424247"/>
<path d="M106.868 74.5094V67.7194H109.829C110.442 67.7194 110.97 67.8196 111.413 68.0201C111.856 68.2141 112.198 68.4954 112.439 68.864C112.68 69.2326 112.801 69.6723 112.801 70.1832C112.801 70.6876 112.68 71.1241 112.439 71.4927C112.198 71.8613 111.856 72.1458 111.413 72.3463C110.97 72.5403 110.442 72.6373 109.829 72.6373H107.747L108.451 71.9292V74.5094H106.868ZM108.451 72.1038L107.747 71.3569H109.741C110.23 71.3569 110.595 71.2534 110.836 71.0465C111.077 70.8396 111.198 70.5518 111.198 70.1832C111.198 69.8081 111.077 69.5171 110.836 69.3102C110.595 69.1033 110.23 68.9998 109.741 68.9998H107.747L108.451 68.2529V72.1038Z" fill="#424247"/>
<path d="M115.302 70.4548H118.595V71.677H115.302V70.4548ZM115.419 73.2484H119.143V74.5094H113.845V67.7194H119.016V68.9804H115.419V73.2484Z" fill="#424247"/>
<path d="M124.849 74.5094L122.719 71.2405L123.999 70.4742L126.648 74.5094H124.849ZM120.402 74.5094V67.7194H121.976V74.5094H120.402ZM121.516 71.774V70.4645H123.901V71.774H121.516ZM124.146 71.289L122.689 71.1144L124.908 67.7194H126.58L124.146 71.289Z" fill="#424247"/>
<path d="M127.63 74.6161C127.513 74.6161 127.389 74.6064 127.259 74.587C127.135 74.5676 126.998 74.5417 126.848 74.5094L126.946 73.1805C127.037 73.2063 127.131 73.2193 127.229 73.2193C127.496 73.2193 127.705 73.1126 127.855 72.8992C128.005 72.6793 128.112 72.3657 128.177 71.9583C128.242 71.5509 128.285 71.0562 128.304 70.4742L128.402 67.7194H133.661V74.5094H132.097V68.6409L132.458 68.9998H129.438L129.761 68.6215L129.702 70.416C129.683 71.0821 129.637 71.6738 129.565 72.1911C129.494 72.7084 129.383 73.1481 129.233 73.5103C129.083 73.8724 128.878 74.1472 128.617 74.3348C128.357 74.5223 128.027 74.6161 127.63 74.6161Z" fill="#424247"/>
<path d="M134.597 74.5094L137.647 67.7194H139.211L142.27 74.5094H140.608L138.106 68.5148H138.732L136.22 74.5094H134.597ZM136.122 73.0544L136.542 71.8613H140.061L140.491 73.0544H136.122Z" fill="#424247"/>
<path d="M143.177 74.5094V67.7194H144.487L147.4 72.5112H146.706L149.57 67.7194H150.88L150.889 74.5094H149.404L149.394 69.9795H149.677L147.38 73.7916H146.677L144.331 69.9795H144.663V74.5094H143.177Z" fill="#424247"/>
<path d="M151.817 74.5094L154.866 67.7194H156.43L159.49 74.5094H157.828L155.326 68.5148H155.951L153.439 74.5094H151.817ZM153.342 73.0544L153.762 71.8613H157.281L157.711 73.0544H153.342Z" fill="#424247"/>
<path d="M161.142 74.587C160.881 74.587 160.656 74.4997 160.468 74.3251C160.285 74.144 160.194 73.9144 160.194 73.6364C160.194 73.3583 160.285 73.1352 160.468 72.9671C160.656 72.7925 160.881 72.7052 161.142 72.7052C161.409 72.7052 161.634 72.7925 161.816 72.9671C161.999 73.1352 162.09 73.3583 162.09 73.6364C162.09 73.9144 161.999 74.144 161.816 74.3251C161.634 74.4997 161.409 74.587 161.142 74.587Z" fill="#424247"/>
<path d="M166.038 74.5094V67.7194H172.274V74.5094H170.7V68.6409L171.062 68.9998H167.25L167.612 68.6409V74.5094H166.038Z" fill="#424247"/>
<path d="M175.426 70.4548H178.72V71.677H175.426V70.4548ZM175.544 73.2484H179.268V74.5094H173.97V67.7194H179.141V68.9804H175.544V73.2484Z" fill="#424247"/>
<path d="M184.828 71.9777C184.489 72.1135 184.163 72.2169 183.85 72.2881C183.538 72.3527 183.238 72.3851 182.951 72.3851C182.032 72.3851 181.329 72.1684 180.84 71.7352C180.351 71.2955 180.107 70.665 180.107 69.8437V67.7194H181.671V69.6691C181.671 70.1347 181.798 70.4871 182.052 70.7264C182.306 70.9592 182.668 71.0756 183.137 71.0756C183.437 71.0756 183.727 71.0433 184.007 70.9786C184.287 70.9075 184.548 70.8072 184.789 70.6779L184.828 71.9777ZM184.603 74.5094V67.7194H186.167V74.5094H184.603Z" fill="#424247"/>
<path d="M187.096 74.5094L190.145 67.7194H191.709L194.768 74.5094H193.107L190.605 68.5148H191.23L188.718 74.5094H187.096ZM188.62 73.0544L189.041 71.8613H192.559L192.99 73.0544H188.62Z" fill="#424247"/>
<path d="M196.808 74.5094V68.6409L197.17 68.9998H194.628V67.7194H200.561V68.9998H198.02L198.372 68.6409V74.5094H196.808Z" fill="#424247"/>
<path d="M204.869 69.9504C205.697 69.9504 206.335 70.1347 206.785 70.5033C207.234 70.8654 207.459 71.4119 207.459 72.1426C207.459 72.9186 207.208 73.507 206.707 73.908C206.211 74.3089 205.524 74.5094 204.644 74.5094H201.556V67.7194H203.129V69.9504H204.869ZM204.556 73.3454C204.96 73.3454 205.28 73.2451 205.514 73.0447C205.749 72.8442 205.866 72.5532 205.866 72.1717C205.866 71.7966 205.749 71.5283 205.514 71.3666C205.286 71.1985 204.967 71.1144 204.556 71.1144H203.129V73.3454H204.556Z" fill="#424247"/>
<path d="M208.906 74.587C208.645 74.587 208.42 74.4997 208.231 74.3251C208.049 74.144 207.958 73.9144 207.958 73.6364C207.958 73.3583 208.049 73.1352 208.231 72.9671C208.42 72.7925 208.645 72.7052 208.906 72.7052C209.173 72.7052 209.398 72.7925 209.58 72.9671C209.763 73.1352 209.854 73.3583 209.854 73.6364C209.854 73.9144 209.763 74.144 209.58 74.3251C209.398 74.4997 209.173 74.587 208.906 74.587Z" fill="#424247"/>
<path fill-rule="evenodd" clip-rule="evenodd" d="M165.264 52.8582H174.381V13.7632H165.264V52.8582ZM34.9099 53.5283C41.7756 53.5283 47.4597 51.0706 51.1738 46.5467L45.3212 41.1852C42.6759 44.257 39.3555 45.8209 35.4162 45.8209C28.0436 45.8209 22.23 40.683 22.23 33.311C22.23 25.9386 28.0439 20.8003 35.4162 20.8003C38.8788 20.8003 41.6813 21.7929 44.2753 23.8074L46.4537 27.7592H46.7737V16.1999C43.496 14.1726 39.4787 13.0933 34.9659 13.0933C22.6979 13.0933 13.0005 21.5265 13.0005 33.311C13.0005 45.0953 22.6979 53.5286 34.9101 53.5286L34.9099 53.5283ZM185.414 16.879V52.8587H194.531V27.9922L214.767 52.6571V52.8587H214.932H223.884V13.7637H214.767V38.9538L194.023 13.7637H185.414H182.858L185.414 16.879ZM133.844 50.0409L145.937 27.664V52.8582H154.491V13.7632H153.449H145.937H143.884L129.061 41.1921L114.239 13.7632H112.116H104.674H103.561V52.8582H112.116V27.5335L125.801 52.8582H132.321H135.365L133.843 50.0412L133.844 50.0409ZM244.117 52.8579H253.234V21.1353H267V13.7629H230.35V21.1353H244.117V52.8579H244.117Z" fill="#424247"/>
<path fill-rule="evenodd" clip-rule="evenodd" d="M75.542 12C87.4018 12 97.0164 21.5415 97.0164 33.3111C97.0164 45.0804 87.4018 54.622 75.542 54.622C63.6825 54.622 54.0679 45.0804 54.0679 33.3111C54.0679 21.5415 63.6825 12 75.542 12ZM75.9727 20.7184C82.6425 20.9391 88.0086 26.2648 88.2312 32.8834H92.6489V33.7388H88.2312C88.0083 40.3576 82.6423 45.6833 75.9727 45.9038V50.2882H75.1113V45.9038C68.4417 45.6829 63.0757 40.3576 62.8528 33.7388H58.4346V32.8834H62.8528C63.0757 26.2648 68.4417 20.9396 75.1113 20.7184V16.3342H75.9727V20.7184Z" fill="#00A4B0"/>
</svg>
